<svg xmlns="http://www.w3.org/2000/svg" xmlns:xlink="http://www.w3.org/1999/xlink" viewBox="0,0,256,256" width="24px" height="24px" fill-rule="nonzero"><g fill="#fefefe" fill-rule="nonzero" stroke="none" stroke-width="1" stroke-linecap="butt" stroke-linejoin="miter" stroke-miterlimit="10" stroke-dasharray="" stroke-dashoffset="0" font-family="none" font-weight="none" font-size="none" text-anchor="none" style="mix-blend-mode: normal"><g transform="scale(10.66667,10.66667)"><path d="M12,2c-5.514,0 -10,4.262 -10,9.5c0,2.545 1.088,4.98748 3,6.77148v4.3457l4.08008,-2.03906c0.959,0.279 1.93992,0.42188 2.91992,0.42188c5.514,0 10,-4.262 10,-9.5c0,-5.238 -4.486,-9.5 -10,-9.5zM12,4c4.411,0 8,3.365 8,7.5c0,4.135 -3.589,7.5 -8,7.5c-0.789,0 -1.58433,-0.1158 -2.36133,-0.3418l-0.75195,-0.21875l-0.70117,0.34961l-1.18555,0.59375v-1.11133v-0.86914l-0.63672,-0.5918c-1.502,-1.402 -2.36328,-3.33855 -2.36328,-5.31055c0,-4.135 3.589,-7.5 8,-7.5zM11,9l-5,5l4.5,-2l2.5,2l5,-5l-4.5,2z"></path></g></g></svg>